<svg version="1" xmlns="http://www.w3.org/2000/svg" width="933.333" height="933.333" viewBox="0 0 700.000000 700.000000"><path d="M220.8 12.5c-.2.1-3.4.5-7.3.8-19.1 1.4-42.7 10.5-64 24.5-10.3 6.8-11.7 8-10.9 9.4.3.4-.1.5-.9.3-.8-.4-4.1 2.4-8.3 6.8-9.5 10.1-13.6 14.7-12.8 14.7.3 0-.7 1.7-2.3 3.7-5.1 6.7-6.3 8.9-5.1 10.1.7.7.4 1-.8.9-1.3-.1-2 .6-2.2 2.1-.2 1.2-1.4 3.3-2.8 4.7-1.3 1.3-2.4 3.3-2.4 4.5 0 1.1-.3 2-.8 2-1.5 0-7.4 19.8-10.3 34.8-2.5 13.2-.9 51.8 2.2 53.8.5.3.7.9.4 1.4-.7 1.1 2.2 8.1 3.8 9.3.8.6.6.7-.5.3-2.2-.7-2.3-1.1.6 6.5 3.6 9.5 5.8 14.1 8 16.7 1.1 1.2 2.1 2.9 2.2 3.7.6 3.8 15.8 24.6 23 31.5 4.3 4 7.2 7 6.4 6.5-.9-.5-1.1-.4-.6.4.4.6 1 1 1.4.7.4-.2 4.3 2.4 8.6 5.8 5.4 4.2 8 6.9 8.3 8.6 2.1 14.2 9.9 32.2 20.7 48 7.9 11.6 35.3 34.5 38.7 32.4.8-.4.9-.3.5.4-.7 1.1 4.7 4.6 5.6 3.6.3-.2 2.7.6 5.4 1.8 6.7 2.9 19.1 6.3 23.4 6.3 1.9 0 3.8.4 4.1.8 1.3 1.8 23.4 1.4 36.9-.6 4-.6 17.2-4.8 21.2-6.7l3.6-1.7 2.6 5.7c3.5 7.8 5.3 13.1 6 17.5.4 2.1.8 4.1 1.1 4.5.3.4.9 3.9 1.5 7.6.5 3.8 1.2 8.5 1.5 10.4 2.1 14.2 3 31.3 3 60.5 0 25.6-.4 35.4-2 51-1 9.9-1.5 14.5-2 21-.4 3.8-.8 8.1-1 9.5-.5 3.3-1.3 10.4-2 16.2-2.9 26.3-7.4 58.6-8.9 63.6-.3.9-.8 3.2-1.1 5-.3 1.8-2.1 10.1-4 18.5-2 8.4-3.8 16.3-4 17.7-.3 1.4-1.4 5.9-2.5 10-1 4.1-1.7 7.6-1.5 7.8.7.7 9.4.9 10.5.2.7-.4 1.4-2.5 1.6-4.6.5-3.6 1.8-11.2 2.7-15.9.3-1.1.8-4 1.2-6.5 1.4-9.3 1.6-10.6 2.5-14.5.5-2.2 1.2-6.3 1.6-9 .3-2.8.8-5.9 1-7 1-5.1 4.4-27.6 4.9-32.5.6-6.6 1.5-14.4 2-18.5.2-1.7.6-7.1 1-12 .3-5 .8-10.1 1-11.5.2-1.4.7-6.1 1-10.5.4-4.4.8-8.7 1-9.5.2-.8.7-6.5 1.1-12.5.4-6.1.8-12.6.9-14.5.2-1.9.3-12.2.4-22.8.1-10.6.5-19.1.9-18.8.5.3.9-.1.9-.9s-.4-1.2-.9-.9c-.4.3-.8 0-.8-.5 0-.6.6-1.1 1.3-1.1.8 0 .8-.3.1-.8-1.1-.8-1.6-8.4-.4-7.7.3.2.7-.2.7-1s-.4-1.2-.9-.9c-.4.3-.8-.2-.8-1.1 0-1 .5-1.4 1.3-.9 1 .6 1 .4 0-.7-1.4-1.4-1.8-6.3-.5-5.5.5.3.9-.1.9-.9s-.4-1.2-.8-1c-.4.3-.8-4.6-.8-10.7-.1-6.2-.4-14.5-.6-18.3-.5-6.1-4.6-36.6-6-43.5-2.6-13.4-3.3-17.5-2.9-17.9.2-.2.4.1.4.7 0 2.3 2.8 1.2 8.6-3.3 6.8-5.3 8.2-7.9 8.5-16.3.1-3.4.6-5.9 1.1-5.6.4.3.6.9.3 1.3-.5.9-1 35.8-2 134.1-.6 54.3-1.3 94.1-2 104.5-.2 3.3-.6 11.2-1 17.5-.4 6.3-.8 13.1-1 15-2.1 21.3-2.5 82.8-.5 86 .3.5 4.9 1.2 10.1 1.5 5.1.4 9.9.8 10.6 1 .8.3.8-.7-.2-3.6-1.5-4.2-3.1-12-4.2-21.4-1.5-11.7.1-170.1 1.7-171.9.5-.5.3-1.7-.3-2.7-.9-1.5-.9-2.3 0-3.8.8-1.3.9-2.1.1-2.9-.8-.8-.8-1.5.1-2.6.7-.8.8-1.7.3-2-1.4-.9-1.4-9.6 0-9.6.9 0 1-.2.2-.8-.8-.5-1.4-8.9-1.9-25.7-.4-13.8-.9-27.9-1-31.5-.9-22.6-.8-77.6.2-76.6.4.3.8 1.3.9 2.2.1.8 1.2 3.3 2.3 5.5 1.2 2.2 1.6 3.7 1 3.3-.7-.4.3 1.4 2.1 4.1l3.3 4.8 1.3-2.4c1.7-3 1.7-1.8 0 5.1-1.3 5.6-1.4 48-.1 66 .3 4.1.7 31.6 1 61 .3 41.4.2 53.6-.8 54.2-.6.4-.7.8-.2.8.7 0 1 2.6.8 6.7-.1 3.8-.4 16.1-.7 27.5-.2 11.4-.7 21.2-1.1 21.8-.3.5 0 1 .7 1 .8 0 .9.3.3.8-1.2.9-1.3 10.2-.1 10.2.5 0 .3.6-.3 1.3-.6.8-.9 1.6-.6 1.8.5.6.7 14.8.2 17.4-.3 1.1-.2 2.4.2 3 .3.5.6 3.7.7 7 .1 6.6 1.1 18.3 1.9 23 1 5.5 5.8 27 6.1 27.4.5.5 7.5.3 8.1-.2.2-.3-.8-4.3-2.1-9.1-2.4-8.1-4.5-18.9-6.3-31.6-.8-5.2-.8-38.7-.2-144 .1-24.5.1-58.5-.1-75.5l-.3-31 3.1-6.5c3.6-7.6 6.7-10.9 12.5-13 4-1.5 4.5-1.5 10.7.7 15.5 5.3 43.4.1 55.6-10.4 1.6-1.4 4.8-3.8 7.1-5.5 2.4-1.6 4.3-3.3 4.3-3.8s1.8-3.3 4-6.2c6.9-9.2 11.1-22.9 11.3-37.5.1-3.6.5-6.3 1.1-6.4 12.4-.9 33.1-7.5 42.1-13.2 14.1-9 27.9-21.9 35.4-33 5.3-8 6.5-10.9 3.4-8.7-1 .7-.5.1 1-1.4 2.8-2.6 7.6-12.2 8.2-16.1.1-1.1.7-3.1 1.3-4.5 1.2-3.2.5-4.5-1.6-2.8-1 .7-.7.1.5-1.2 3.7-4.4 4.5-9.4 4-25.5-.7-19.4-1.2-22.8-4.9-33.2-1.2-3.4-2.6-5.9-3.1-5.6-.6.3-.7.1-.3-.6.8-1.2-4.6-13.5-6.4-14.6-.6-.3-1.9-2.3-3-4.4-2-4.1-19.3-22.2-25-26.2-10.4-7.5-29.6-15.8-40.8-17.9-9.4-1.7-28.2-2.3-29.8-.9-.8.6-1.4 2.3-1.4 3.7 0 1.4-.2 2.3-.6 2-.3-.3-.7-4.6-.9-9.4-.3-9.1-.8-12.9-2.7-19.9-1-4.1-3.6-9.6-4.8-10.5-.3-.3-2.5-3.2-4.7-6.5s-6.6-8.3-9.8-11c-3.1-2.8-6.3-5.6-7-6.3-.8-.6-1.8-1.2-2.4-1.2-.6 0-3-1.1-5.4-2.4-5.7-3.2-14.7-5.5-23-5.8-3.7-.2-6.7-.6-6.7-1 0-1.1-16.9.8-20.8 2.4-1.5.6-2.9 1.2-3.2 1.3-3 .8-10.4 5.2-11.5 6.8-1.4 2-1.5 2-1.5.3 0-1.6-.4-1.5-2.5.8-1.4 1.5-3 2.4-3.5 2.1-.6-.3-1 .3-1 1.4 0 1.2-.4 2.1-.9 2.1s-3.1 2-5.9 4.5c-6.3 5.7-9.4 5.8-11.5.2-.4-.9-1.4-2-2.3-2.4-.9-.3-3-1.9-4.7-3.5-6.4-6-22.3-15.6-36.2-22.1-12.4-5.7-24.1-8.8-38.6-10.3-6.1-.6-27.6-1.3-28.1-.9zM441 142.4c0 .2-.8 1-1.7 1.7-1.6 1.3-1.7 1.2-.4-.4 1.3-1.6 2.1-2.1 2.1-1.3zm-47.8 26.8c-.6.6-.8 0-.5-1.6.5-2.4.2-2.6-2.8-2.7l-3.4-.2 3.5-.6c3.1-.5 3.5-.4 3.8 1.8.2 1.3-.1 2.8-.6 3.3zm8.7-5.8c-.9.9-6.9 1.4-6.9.5 0-.5 1.7-.9 3.7-.9s3.4.2 3.2.4zm-48.2 19.8c-.3.7-.5.2-.5-1.2s.2-1.9.5-1.3c.2.7.2 1.9 0 2.5zM426 194c1.2.8.9.9-1 .6-1.7-.2-3.1.3-4.3 1.8-1.7 2.1-1.7 2.1-.6-.7 1.3-2.8 3.3-3.4 5.9-1.7zm-4.7 24.5c-.3.9-.8 1.4-1 1.1-.3-.3-.2-.9.2-1.5.9-1.6 1.5-1.3.8.4zm-31 14.5c.3 1.1.1 1.8-.4 1.4-.5-.3-.9-1.2-.9-2 0-2 .7-1.7 1.3.6zm-39.3.4c0 .3-.4.8-1 1.1-.5.3-1 .1-1-.4 0-.6.5-1.1 1-1.1.6 0 1 .2 1 .4zm175 2c0 .2-.8 1-1.7 1.7-1.6 1.3-1.7 1.2-.4-.4 1.3-1.6 2.1-2.1 2.1-1.3zm-181.1 7.3c0 .5-1.4 1.9-3.2 3.3l-3.2 2.5 2.5-3.2c2.4-3.1 4.1-4.1 3.9-2.6zm19.6 24.7c.6.4.1.4-1-.2-1.1-.6-2.9-2.1-4-3.4-1.9-2.2-1.9-2.2 1 .2 1.7 1.4 3.5 2.9 4 3.4zm-62.8 9.8c-.3.8-.6.5-.6-.6-.1-1.1.2-1.7.5-1.3.3.3.4 1.2.1 1.9zm-.3 6.2c.2 2 0 3.4-.4 3.1-.5-.3-.7-1.5-.5-2.6.2-1.2-.2-2.2-1.1-2.6-1.2-.5-1.3-.7-.3-1.4 1.8-1 1.9-.8 2.3 3.5zm105.6 3c0 .2-.9.6-2 .9-1.1.3-1.8.1-1.4-.4.5-.9 3.4-1.3 3.4-.5zm-208 7c0 .3-.4.8-1 1.1-.5.3-1 .1-1-.4 0-.6.5-1.1 1-1.1.6 0 1 .2 1 .4zm6 1c0 .2-.9.6-2 .9-1.1.3-2 .1-2-.4s.9-.9 2-.9 2 .2 2 .4zm59.3 1.7c-.5 1.6-.7 1.7-2 .4-.8-.9-1.9-1.3-2.4-1-.5.4-.9.2-.9-.3s1.3-.9 2.9-.9c2.2 0 2.7.4 2.4 1.8zm-48.3.4c0 .2-1.3.5-3 .7-1.9.3-3 0-3-.7s1.1-1 3-.7c1.7.2 3 .5 3 .7zm41.3 1.2c-.5 1.2-.7 1.2-1.4.1-1.3-2-1.1-2.8.5-2.2.8.3 1.2 1.2.9 2.1zm-57.6.5c-.3.8-.6.5-.6-.6-.1-1.1.2-1.7.5-1.3.3.3.4 1.2.1 1.9zm200.7 5.3c-2 2.5-3.9 4.5-4.2 4.5-.5 0 .8-1.7 5.2-6.8 3.5-4 2.8-2.3-1 2.3zm-10.4 2.9c0 .2-.8 1-1.7 1.7-1.6 1.3-1.7 1.2-.4-.4 1.3-1.6 2.1-2.1 2.1-1.3zm-88.3 5.8c-.3.8-.6.5-.6-.6-.1-1.1.2-1.7.5-1.3.3.3.4 1.2.1 1.9zm-93.1.9c1.9 2.2 1.9 2.2-.2 1.1-1.2-.6-2.4-.8-2.8-.4-.4.3-.4-.1 0-1.1.8-2.1.7-2.1 3 .4zm128.1.1c-.3.8-.6.5-.6-.6-.1-1.1.2-1.7.5-1.3.3.3.4 1.2.1 1.9zm89-1.6c-.3.3-1.2.4-1.9.1-.8-.3-.5-.6.6-.6 1.1-.1 1.7.2 1.3.5zm-91.7.8c0 .2-.8 1-1.7 1.7-1.6 1.3-1.7 1.2-.4-.4 1.3-1.6 2.1-2.1 2.1-1.3zm48.9 4.1c-1.2 1.9-2.3 3.5-2.5 3.5-.6 0 1.4-4 2.9-5.8 1.8-2.3 1.6-1.2-.4 2.3zm-47.8 1.2c-1.2 2-1.4 1.4-.5-1.2.4-.9.9-1.4 1.1-1.1.3.2 0 1.3-.6 2.3zm-80.8 1.4c-2.1 2.1-7.9 3.6-6.7 1.8.3-.5.9-.7 1.3-.5.4.3 2.1-.4 3.7-1.4 3.9-2.5 4.3-2.4 1.7.1zm47.4 1.1c-.3.7-.5.2-.5-1.2s.2-1.9.5-1.3c.2.7.2 1.9 0 2.5zm17.3 2.3c0 .5-.5.3-1-.5s-1-2-1-2.5c0-.6.5-.3 1 .5s1 1.9 1 2.5zm25.7-.3c-.3.7-.5.2-.5-1.2s.2-1.9.5-1.3c.2.7.2 1.9 0 2.5zm61.8-2.2c-.3.5-1.2 1-1.8 1-.7 0-.6-.4.3-1 1.9-1.2 2.3-1.2 1.5 0zm-5.5 2.5c-1.4.8-2.9 1.4-3.5 1.4-.5 0 .1-.6 1.5-1.4 1.4-.8 3-1.4 3.5-1.4.6 0-.1.6-1.5 1.4zm-100 3.2c-1.1 1.7-1.1 1.7-.6 0 .3-1 .6-2.4.7-3 0-.9.2-.9.5 0 .3.7 0 2-.6 3zm20.8-1.2c-2.6 3-2.4 2.9-3.2.9-.3-.8-.2-1.3.3-1 .5.3 1.4-.1 2.1-.9.7-.8 1.6-1.5 2.1-1.5s-.1 1.1-1.3 2.5zM424 323c-.8.5-1.9 1-2.5 1-.5 0-.3-.5.5-1s2-1 2.5-1c.6 0 .3.5-.5 1zm-68.9 3.3c-1 .9-1.1.8-.5-.6.3-1 .9-1.5 1.2-1.2.3.3 0 1.1-.7 1.8zm-106.9 6.8c13.4 2.9 12.1 3.1-2.7.4-4.4-.8-10-1.5-12.5-1.5-2.5-.1-3.9-.4-3.2-.7 1-.4 1-.8.1-1.9-.9-1.2-.6-1.2 1.9-.3 1.6.6 9 2.3 16.4 4zm72.1-3.1c.3 1.1.1 1.8-.4 1.4-.5-.3-.9-1.2-.9-2 0-2 .7-1.7 1.3.6zm34.4.2c-.3.8-.6.5-.6-.6-.1-1.1.2-1.7.5-1.3.3.3.4 1.2.1 1.9zM223 334.4c0 .2-.8 1-1.7 1.7-1.6 1.3-1.7 1.2-.4-.4 1.3-1.6 2.1-2.1 2.1-1.3zm100.9 1.7c-.6 1.3-.9 4.1-.6 6.8.4 3.2.3 3.9-.3 2.4-1.3-3.1-2-10.4-1-9.8.5.3 1.1.1 1.5-.5 1.2-1.9 1.6-1 .4 1.1zm-58.2.5c-.3.3-1.2.4-1.9.1-.8-.3-.5-.6.6-.6 1.1-.1 1.7.2 1.3.5zm4.9 1.2c-1 .2-2.2 0-2.8-.6-.6-.6 0-.7 1.9-.4 2.1.5 2.3.7.9 1zm-50.8 2.6c-.1 1.4-.5 2.3-.9 2-.7-.4 0-4.4.7-4.4.2 0 .3 1.1.2 2.4zm55.9-1.8c-.3.3-1.2.4-1.9.1-.8-.3-.5-.6.6-.6 1.1-.1 1.7.2 1.3.5zm12.6 3.4c8.8 3.3 6.4 3.2-3.3-.1-4.7-1.6-7.1-2.8-5.5-2.5 1.7.3 5.7 1.4 8.8 2.6zm15.3 10.5c-1.1.8-2.4 1.5-3 1.5-.5 0-.1-.7 1-1.5 1-.8 2.4-1.4 2.9-1.4.6 0 .1.6-.9 1.4zm74.1 14.5c2.8 1.9 5.9 4.1 6.9 4.8 1.7 1.1 1.6 1.1-.4.2-2.9-1.4-7.3 1.1-10.8 6.2-1.5 2.1-3.1 3.5-3.7 3.1-.8-.5-.7-10.6.3-22.3 0-.3.6.6 1.3 2 .7 1.3 3.5 4 6.4 6z"/></svg>