<?xml version="1.0" encoding="UTF-8" standalone="no"?>
<svg
   xmlns:dc="http://purl.org/dc/elements/1.1/"
   xmlns:cc="http://creativecommons.org/ns#"
   xmlns:rdf="http://www.w3.org/1999/02/22-rdf-syntax-ns#"
   xmlns:svg="http://www.w3.org/2000/svg"
   xmlns="http://www.w3.org/2000/svg"
   xmlns:sodipodi="http://sodipodi.sourceforge.net/DTD/sodipodi-0.dtd"
   xmlns:inkscape="http://www.inkscape.org/namespaces/inkscape"
   width="1551.5"
   height="610.59"
   version="1.0"
   viewBox="0 0 15514.9 6105.8698"
   id="svg498"
   sodipodi:docname="logo.svg"
   inkscape:export-filename="C:\Users\fgandiya\Documents\scbc\static\img\logo-fixed.png"
   inkscape:export-xdpi="96"
   inkscape:export-ydpi="96"
   inkscape:version="0.92.1 r15371">
  <defs
     id="defs502" />
  <sodipodi:namedview
     pagecolor="#ffffff"
     bordercolor="#666666"
     borderopacity="1"
     objecttolerance="10"
     gridtolerance="10"
     guidetolerance="10"
     inkscape:pageopacity="0"
     inkscape:pageshadow="2"
     inkscape:window-width="1920"
     inkscape:window-height="1001"
     id="namedview500"
     showgrid="false"
     inkscape:zoom="0.21849823"
     inkscape:cx="775.75"
     inkscape:cy="305.29501"
     inkscape:window-x="-9"
     inkscape:window-y="-9"
     inkscape:window-maximized="1"
     inkscape:current-layer="svg498" />
  <metadata
     id="metadata2">
    <rdf:RDF>
      <cc:Work
         rdf:about="">
        <dc:format>image/svg+xml</dc:format>
        <dc:type
           rdf:resource="http://purl.org/dc/dcmitype/StillImage" />
        <dc:title />
      </cc:Work>
    </rdf:RDF>
  </metadata>
  <g
     transform="translate(0 -13.463)"
     id="g496">
    <g
       fill="#5f4022"
       id="g84">
      <path
         d="m5095 6096-40-12-3-227-2-227h30c16 0 30 5 30 11s8 8 18 5c25-8 93-9 120-3 27 7 60 41 73 75 17 44 11 144-11 180-32 53-128 80-181 52-18-10-19-7-19 52 0 41 5 71 16 86 8 12 14 22 12 21-2 0-21-6-43-13zm149-186c37-37 34-192-5-231-24-24-79-25-108-1-20 16-22 25-19 127 3 105 4 110 28 122 31 17 79 9 104-17z"
         id="path4" />
      <path
         d="m11050 6102c0-5 14-42 30-82 17-40 30-79 30-87 0-14-29-85-91-221-16-34-29-65-29-67 0-3 13-5 28-5 28 0 37 13 115 194 13 28 13 27 51-69 37-94 38-99 21-112-17-12-15-13 18-13 20 0 37 2 37 4s-9 25-20 50c-11 26-20 50-21 54-3 9-25 64-50 121-10 24-16 47-13 52s1 9-4 9-17 21-26 48c-19 50-34 88-45 111-9 17-31 27-31 13z"
         id="path6" />
      <path
         d="m9119 6036c-32-10-152-96-134-96 4 0-6-15-21-34-16-19-41-52-56-74-20-28-36-41-58-44l-30-5v177h-71l1-187c1-127-2-189-9-191-6-2-11-8-11-14 0-13 215-8 250 6 61 23 87 88 59 149-10 22-48 49-74 52-17 2-7 23 46 102 54 80 123 153 145 153 7 0 16 5 19 10 8 12-9 11-56-4zm-154-301c18-17 25-35 25-64 0-57-33-81-111-81h-59v170h60c51 0 65-4 85-25z"
         id="path8" />
      <path
         d="m2260 5971-55-6-6-90c-13-175-8-365 17-740 24-353 27-453 34-1390 8-1005 9-1058 45-1263 25-144 18-256-30-457-25-101-22-314 5-447 24-117 25-118 50-118 31 0 32 17 5 97-21 61-28 105-32 203-5 117-3 133 27 255 46 188 80 245 144 245 28 0 42-8 76-47 24-27 49-62 56-80 17-39 18-143 3-233-8-47-7-131 2-305l12-241 40-1 40-2-6 52c-3 29-13 106-22 172-11 79-16 165-13 252 3 123 5 134 28 157 13 15 32 26 42 26 23 0 100-98 138-175 16-33 40-96 52-140 24-85 24-85 62-85 42 0 38 34-24 181-66 158-94 205-209 339-213 250-245 289-282 343-42 64-78 166-106 303-15 76-18 136-17 399 1 171 7 390 13 489 14 225 14 844 0 1261-17 503-15 731 5 869 9 66 23 134 31 153l14 33-42-2c-23-1-67-4-97-7z"
         id="path10" />
      <path
         d="m1896 5873c33-135 44-186 60-262 3-14 7-27 9-31s7-29 11-56c3-27 8-52 10-55 22-37 108-725 140-1119 37-461-10-1019-102-1205-87-178-193-239-507-291-266-44-351-76-431-165-48-53-110-164-101-179 3-6 26-10 51-10 39 0 44 2 44 23 0 37 58 115 105 143 62 36 147 64 210 68 50 4 57 2 76-22 18-23 20-38 18-111-3-80-2-85 20-95 26-11 41 3 41 42 0 36 54 146 94 189 70 78 186 104 229 52 18-23 19-36 12-304-5-201-4-298 5-345 14-77 136-427 158-452 18-22 42-23 42-4 0 8-19 65-42 128-73 199-80 235-85 433-6 199-2 225 62 485 68 276 98 415 109 505 4 28 9 60 11 72 3 12 7 41 10 65s8 59 10 78c17 126 20 200 19 500 0 330-7 508-29 705-3 22-7 69-10 105s-8 88-10 115c-3 28-7 77-10 110-9 109-31 297-40 345-3 14-7 42-10 64-3 21-7 41-9 45-2 3-7 35-11 71s-9 68-11 71c-2 4-6 24-10 44-3 21-8 47-10 59-2 11-7 41-10 66s-8 47-9 50c-2 3-6 26-10 50-4 25-9 52-10 60-2 8-4 25-4 38-1 20-6 22-55 22h-54z"
         id="path12" />
      <path
         d="m2496 5903c-18-73-23-98-32-152-3-18-8-43-10-55-19-98-22-443-8-901 15-469 11-853-12-1325-5-118-6-356 0-390 11-69 40-162 73-230 46-96 198-322 284-424 8-9 79 30 79 43 0 4-24 24-53 44s-62 49-74 65c-35 47-85 153-79 168 10 25 80 12 146-27 8-5 22-12 30-15s41-19 73-36c31-16 62-26 68-22 6 3 35-11 65-31l54-37 73 14 72 14-155 76c-160 79-249 109-382 129-42 6-90 20-107 30-39 24-87 124-106 222-17 87-20 207-6 207 5 0 18-15 29-34s32-42 47-52c26-17 28-16 73 6l47 23-43 9c-49 11-85 49-119 130-23 53-23 54-16 428 9 460 9 511-1 880-9 321-10 831-2 895 3 22 8 60 10 85 3 25 8 56 11 70 2 13 7 42 11 64 3 22 10 48 15 58s7 18 5 18c-3 0 2 19 10 43 28 75 27 77-15 77h-39z"
         id="path14" />
      <path
         d="m2935 5951c-22-10-46-25-53-34-21-25 3-30 40-7 64 39 168 18 168-33 0-13-35-55-99-118-54-53-102-107-106-119-16-50 67-104 124-81 37 16 102 20 125 8 17-8 16-6-4 22-16 23-27 30-39 25-72-31-141-29-141 4 0 9 46 63 103 119 80 81 103 110 105 133 6 77-126 125-223 81z"
         id="path16" />
      <path
         d="m6151 5948c-5-13-23-63-42-111l-33-89-18 54c-9 29-18 60-18 68-1 8-10 33-20 55-15 35-19 37-25 20-4-11-32-81-61-156-30-76-54-140-54-143s13-6 29-6c27 0 31 5 69 103l39 102 30-93c17-51 34-93 39-93 5-1 20 25 32 58 13 32 31 74 39 93l15 35 23-67c13-36 26-75 30-87 4-13-1-27-14-40l-21-21h40c22 0 40 1 40 3 0 1-22 69-49 150s-47 147-44 147 0 6-6 13c-6 8-8 17-4 20 3 4 3 7-1 7-3 0-10-10-15-22z"
         id="path18" />
      <path
         d="m11627 5956c-26-7-51-13-55-13s-18-21-31-46c-20-40-22-50-11-81 13-39 43-66 75-66 14 0 10-5-15-17-19-10-38-22-42-28-9-12-10-68-2-90 6-14 51-44 71-46 5-1 18-5 31-10 14-5 42-5 70 2 71 16 95 17 122 7 25-9 25-9-3 20s-30 30-63 16c-75-32-162-9-171 45-5 35 13 58 62 76 43 17 59 34 33 36-65 4-103 35-104 84-2 69 69 108 155 85 47-12 59-25 66-73 6-35 5-37-22-37-16 0-35 6-42 13-10 10-12 7-9-13 3-23 6-25 53-23 116 6 145 8 145 14 0 3-16 13-35 22-22 10-35 24-35 36 0 29-57 78-105 90-54 14-77 13-138-3z"
         id="path20" />
      <path
         d="m3289 5937c-74-52-91-168-35-241 33-44 59-58 107-59 76-1 136 43 153 115 7 30 0 34-69 43-22 3-58 8-80 11-22 4-48 6-57 6-26-1-31 14-18 53 22 67 80 91 141 59 24-12 34-13 45-3 21 17 17 24-13 26-16 1-53 5-83 8-48 6-59 3-91-18zm167-170c3-2 0-17-6-33-36-93-119-100-154-14-30 77-28 79 70 64 47-7 88-15 90-17z"
         id="path22" />
      <path
         d="m3590 5766v-194l30-12c17-7 32-11 33-9s1 95-1 207l-3 202h-59z"
         id="path24" />
      <path
         d="m3740 5772c0-183 1-189 23-209 12-11 31-23 42-27 23-7 85 27 85 46 0 8-5 5-11-4-10-18-35-23-63-12-10 4-16 18-16 40 0 31 3 34 30 34 17 0 30 5 30 10 0 6-13 10-30 10h-30v300h-60z"
         id="path26" />
      <path
         d="m4140 5776c0-113-4-187-10-191-23-14-7-25 35-25h45v167l85 1h85v-164l30-2 30-2v400h-60v-99c0-73-4-100-13-104-7-3-45-4-83-3l-69 1-3 103-3 102h-69z"
         id="path28" />
      <path
         d="m4620 5951c-8-5-17-8-21-5-11 7-69-87-71-115-4-79 23-145 71-174 84-50 221 12 221 100 0 27-5 30-61 38-95 12-125 16-144 19-32 5-22 64 16 100 28 25 37 27 72 22 23-4 47-12 54-18 8-6 15-9 16-7s8 11 14 19c9 12 7 15-15 17-15 1-52 4-82 8-31 3-61 2-70-4zm136-184c10-10-4-51-27-81-17-22-28-26-57-24-43 4-71 38-79 95l-5 40 81-12c44-6 84-14 87-18z"
         id="path30" />
      <path
         d="m4900 5761v-198l28-6c15-3 36-9 47-12 16-6 17-5 5 4-12 8-16 46-18 211l-3 200h-59z"
         id="path32" />
      <path
         d="m5570 5958c1-7 28-77 47-118 11-25 40-96 64-157 24-62 47-113 50-113 4 0 32 60 64 133 32 72 63 143 70 157s19 39 26 55c7 17 15 33 17 38 2 4-13 7-33 7-33 0-37-3-55-46-15-35-24-45-36-40-9 4-43 1-76-6-50-10-61-10-68 2-16 25-11 68 8 79 13 8 7 10-30 11-27 0-48-1-48-2zm206-121c2-7-10-46-29-86l-33-73-30 81-31 80 41 4c23 2 49 4 59 5s20-4 23-11z"
         id="path34" />
      <path
         d="m6358 5940c-14-10-29-16-33-12-5 4-5 1-1-6s1-14-6-17c-18-7-15-58 5-88 16-25 63-46 145-67 46-12 56-35 26-64-18-18-85-21-114-6-15 8-21 6-30-10-9-17-8-21 2-19 7 1 32-3 56-10 51-14 109-2 138 30 16 18 19 40 22 155l4 134h-31c-17 0-31-5-31-10 0-7-6-7-19 0-33 17-106 12-133-10zm130-16c19-13 22-24 22-89v-73l-37 10c-93 25-128 70-99 126 23 45 72 56 114 26z"
         id="path36" />
      <path
         d="m6670 5801v-159l34-4c27-3 33-1 28 12-5 12-3 13 9 3 8-7 34-15 57-19 34-5 42-4 42 8 0 10-14 18-39 22-61 9-71 32-71 155 0 83 3 108 17 123 15 17 14 18-30 18h-47z"
         id="path38" />
      <path
         d="m6958 5950c-10-6-18-8-18-4 0 17-51-62-66-102-15-39-15-46 0-91 9-26 22-55 29-64 38-49 125-66 184-36 48 25 105 133 71 134-13 1-73 9-143 19-22 4-48 6-58 6-26-1-30 20-13 61 21 52 58 73 104 60 21-6 44-13 52-17 9-4 19 1 26 11 9 15 7 18-15 20-14 1-51 4-81 8-33 3-62 1-72-5zm148-183c3-2 0-17-6-33-30-78-100-100-140-44-12 17-24 48-27 69l-5 38 87-13c48-7 89-15 91-17z"
         id="path40" />
      <path
         d="m7230 5795v-165h30c20 0 30 5 30 15 0 13 4 14 21 4 19-10 54-13 117-10 13 1 37 14 53 30l29 29v262h-42c-39 0-40-1-25-18 13-14 17-39 17-104 0-90-13-145-38-165-29-24-103-11-124 21-4 6-8 68-8 139v127h-60z"
         id="path42" />
      <path
         d="m7662 5941c-48-31-72-77-72-139 0-93 56-163 131-163 55 0 76 4 91 19 7 7 17 12 23 12 14 0 45 63 45 90 0 24-6 28-61 34-24 4-62 9-84 12s-49 7-60 7c-29 3-29 30-1 76 36 56 62 61 146 27 9-4 20 1 26 11 9 15 7 18-15 20-14 1-51 4-81 8-45 5-61 2-88-14zm137-167c20-4 22-9 17-36-9-44-43-78-78-78-45 0-88 56-88 114 0 22 2 23 63 14 34-5 73-11 86-14z"
         id="path44" />
      <path
         d="m7951 5939c-25-15-31-23-21-29 8-5 25 0 44 11 41 25 91 24 116-1 11-11 20-25 20-32 0-6-36-46-80-88-67-64-80-82-80-108 0-38 28-56 82-53 21 2 55 3 77 4 34 2 37 4 27 20-8 13-17 16-36 11-14-4-41-8-60-8-60-1-51 27 33 113 85 86 104 116 88 135-6 7-9 16-6 19 3 4 2 5-1 2-4-2-16 2-28 10-32 23-133 20-175-6z"
         id="path46" />
      <path
         d="m8260 5944c-14-10-27-19-29-20-1-1 0-7 3-13 4-7 19-3 42 9 41 24 82 25 111 5 32-22 20-47-63-132-56-58-74-83-74-104 0-42 36-58 108-48 31 5 65 6 75 3 16-5 17-3 5 16-10 16-19 19-38 14-14-4-41-8-60-8-62-2-51 29 40 117 70 68 80 82 80 112 0 19-5 35-11 35-5 0-8 4-5 8 6 11-1 12-89 18-56 4-75 1-95-12z"
         id="path48" />
      <path
         d="m9177 5927c-42-39-57-73-57-128 0-51 20-97 58-133 54-51 164-34 210 31 24 35 36 89 19 90-13 1-75 9-142 19-22 4-48 6-57 6-40-1-34 51 12 98 33 33 69 38 110 15 33-19 37-18 49 4 9 16 8 18-9 14-11-3-26-1-33 4-6 6-37 11-68 12-52 2-59 0-92-32zm179-160c3-2 0-17-6-33-36-93-119-100-154-14-30 77-28 79 70 64 47-7 88-15 90-17z"
         id="path50" />
      <path
         d="m9544 5941c-72-44-99-129-66-204 38-85 115-118 205-88 30 10 41 10 53 0 12-9 11-6-2 18-17 28-19 29-43 17-43-23-87-17-123 15-28 25-32 35-35 92-7 110 39 155 146 144l56-6-34 16c-46 21-119 19-157-4z"
         id="path52" />
      <path
         d="m9867 5949c-21-12-61-52-63-62-1-4-5-18-9-30-33-109 37-220 139-220 95 0 145 56 147 166 3 95-56 157-147 157-27 0-57-5-67-11zm121-26c21-19 42-72 42-107 0-40-21-95-47-126-20-24-32-30-57-28-67 7-97 115-57 204 31 68 79 91 119 57z"
         id="path54" />
      <path
         d="m10226 5936c-9-14-16-29-16-33 0-13-91-217-101-227-18-19-9-36 20-36 27 0 31 7 73 103 24 56 48 102 53 102 9 0 63-124 69-162 6-31 15-43 32-43 16 0 19 31 5 46-5 5-33 68-61 139-29 72-53 131-55 133-1 1-10-9-19-22z"
         id="path56" />
      <path
         d="m10474 5942c-53-34-76-76-76-140 0-100 55-165 142-165 51 0 85 14 112 47 23 28 42 86 32 96-9 8-60 17-159 26-33 4-63 9-67 13-13 12 32 96 59 109 35 16 52 15 87-3 27-14 31-14 48 2 17 17 16 18-10 20-15 1-52 4-82 8-45 5-61 2-86-13zm152-175c10-10-4-51-27-81-28-36-83-34-111 5-18 24-40 94-32 102 6 5 163-18 170-26z"
         id="path58" />
      <path
         d="m10768 5797-3-162 33 3c17 2 32 8 32 13 0 4 16 1 35-7 43-18 65-18 65 0 0 8-15 17-35 20-60 12-65 24-65 155 0 78 4 121 12 129 9 9 3 12-30 12h-41z"
         id="path60" />
      <path
         d="m12220 5778c0-155-2-184-17-200-16-17-11-18 134-18h151l11 30c11 33 6 37-23 15-14-10-45-15-103-15h-83v150h70c40 0 70 4 70 10s-30 10-70 10h-70v180h105c63 0 105 4 105 10s-53 10-140 10h-140z"
         id="path62" />
      <path
         d="m12580 5795v-165h30c23 0 28 3 23 17-5 12-3 14 8 7 21-13 38-15 98-15 95 0 121 45 121 211v110h-47c-38-1-44-3-30-11 16-9 18-25 16-126-1-109-3-118-26-141-20-20-31-24-64-19-69 9-79 30-79 174v123h-50z"
         id="path64" />
      <path
         d="m12950 5800v-160h35c19 0 35 4 35 9 0 6 16 3 35-5 43-18 65-18 65 0 0 7-14 16-32 20-61 12-68 27-68 148 0 60 5 118 10 129 10 17 7 19-35 19h-45z"
         id="path66" />
      <path
         d="m13240 5810c0-131-2-150-17-159-14-8-8-10 30-11h47v320h-60z"
         id="path68" />
      <path
         d="m13470 5953c-24-9-61-46-78-78-18-35-17-117 3-154 37-73 120-104 194-74 18 8 39 12 47 9 11-4 11-2 1 14-7 13-18 18-27 13-8-3-34-8-58-11-37-3-48 0-72 23-85 82-35 256 69 242 20-3 46-8 59-12 31-10 28 9-3 23-26 12-108 15-135 5z"
         id="path70" />
      <path
         d="m13730 5760c0-110 3-200 8-201 4 0 14-2 22-4 63-16 64-15 46 4-9 10-16 35-16 61 0 36 2 41 15 30 33-28 140-12 176 26 22 24 24 35 27 155l4 129h-62v-115c0-125-12-168-51-180-32-10-88 4-99 25-5 10-10 75-10 144v126h-60z"
         id="path72" />
      <path
         d="m14100 5795v-165h30c17 0 30 5 30 11 0 7 7 8 18 4 28-12 98-8 129 7 16 8 36 11 44 7 47-25 111-29 158-9 46 18 51 36 58 193l5 117h-92l15-24c13-19 16-47 14-128-2-91-5-105-25-125-29-29-63-29-98-2-26 20-26 22-26 150v129h-60v-124c0-110-2-126-21-150-24-30-63-34-97-10-21 14-22 22-22 150v134h-60z"
         id="path74" />
      <path
         d="m14740 5954c-33-13-81-70-91-108-12-45-5-95 21-146s99-75 171-57c50 13 118 113 93 137-5 5-31 11-59 14-27 3-68 9-90 12-22 4-48 6-57 6-27-1-30 13-12 57 26 66 78 87 138 56 27-15 31-14 48 3 19 18 18 19-14 19-18 1-55 4-83 7-27 3-57 3-65 0zm118-181c20-5 22-10 17-32-10-45-39-76-74-79-47-5-77 28-95 102l-7 29 68-7c37-4 78-10 91-13z"
         id="path76" />
      <path
         d="m15010 5795v-165h31c18 0 28 4 24 10-4 7 3 9 22 5 15-4 46-6 68-6 112 1 135 39 135 219v102h-47c-38-1-44-3-30-11 15-9 17-26 17-125 0-110-1-116-26-141-22-22-32-25-67-20-69 9-77 28-77 173v124h-50z"
         id="path78" />
      <path
         d="m15400 5942c-25-17-25-18-22-149 2-100 0-133-10-133-9 0-9-3 0-12 7-7 12-22 12-34 0-14 8-25 20-28 11-3 30-9 42-12 21-6 21-6 5 10-9 10-17 26-17 37 0 15 7 19 35 19 19 0 35 5 35 10 0 6-16 10-35 10h-35v128c0 86 4 132 12 140 15 15 68 16 68 0 0-6 3-8 7-4 13 12-28 36-61 36-17 0-42-8-56-18z"
         id="path80" />
      <path
         d="m13223 5585c-6-17 22-44 48-45 25 0 39 21 28 42-12 23-67 25-76 3z"
         id="path82" />
    </g>
    <g
       fill="#46752f"
       id="g122">
      <path
         d="m8065 5546c-194-41-395-180-555-386-28-36-60-75-71-86-10-12-19-25-19-29 0-5-11-23-25-41s-25-35-25-38c0-4-160-257-200-316-9-14-35-53-56-87l-39-63h-76c-71 0-77 2-83 23-3 12-6 172-6 355v332h-220v-702c0-662-2-705-19-744-20-43-82-101-118-110-13-4-23-11-23-16 0-10 745-5 792 6 16 4 38 8 50 10 68 12 187 72 221 110 71 84 104 185 101 316-3 115-5 128-44 207-46 94-141 161-272 194-51 12-57 19-33 43 8 8 15 17 15 20 0 4 43 77 96 164 53 86 106 173 117 192 12 19 23 37 26 40 8 7 30 42 38 60 16 37 86 140 94 140 5 0 8 4 7 9-4 14 70 109 157 199 83 87 208 179 257 189 16 3 31 10 34 14 7 12-49 10-121-5zm-784-1152c75-21 133-71 167-143 22-47 27-73 30-166 3-95 1-118-18-169-28-74-89-137-156-161-53-19-293-33-358-21l-36 7v669h157c114 0 172-4 214-16z"
         id="path86" />
      <path
         d="m3085 5214c-33-9-89-36-125-60-67-45-140-109-140-122 0-4-12-20-27-36l-27-29 38-32 38-31 60 58c33 32 71 61 84 64s24 10 24 15 8 9 18 9 22 4 27 9c16 16 64 24 158 27 98 3 203-22 238-57 10-10 19-17 19-14 0 8 34-30 48-55 47-80-1-199-146-360-37-41-121-133-186-205-66-71-136-148-156-170-61-67-135-148-161-178-34-37-61-176-45-222 40-108 91-161 183-190 61-19 173-26 211-13 12 4 37 9 55 10s37 5 42 9c6 4 22 10 35 13 14 2 32 7 40 10s29 8 45 11c132 27 158 25 253-22 49-24 77-34 68-24s-13 21-9 24c3 4 2 7-4 7s-46 47-89 104l-78 104-35-22c-54-33-161-82-206-95-109-30-236-2-274 60-18 29-18 35-4 83 20 67 42 96 234 301 32 33 81 87 110 120 53 58 118 129 169 183s130 154 146 185c9 18 22 35 28 39s8 8 4 8-1 19 7 41c20 55 19 162 0 199-9 17-13 30-10 30 7 0-35 50-74 86-43 42-140 94-216 117-87 26-291 32-370 11z"
         id="path88" />
      <path
         d="m10305 5223c-119-9-233-49-312-109-70-52-157-149-191-214-19-36-39-68-44-71s-9-8-8-10c2-2-9-42-24-88-104-328-5-739 230-961 68-65 119-98 189-123 76-28 84-29 177-32 70-2 100 2 160 22 40 13 78 26 83 27 6 2 22 8 36 14 15 6 46 14 70 17 24 4 47 8 50 11 12 7 119-33 161-61 24-16 38-22 32-14-45 58-178 225-183 231-4 4-23-5-42-21-88-73-181-105-304-106-79 0-97 4-147 28-68 33-144 113-181 188-14 30-27 61-29 69s-6 17-9 20c-11 9-38 135-50 230-6 54-9 134-5 185 6 80 13 118 45 242 9 33 34 92 78 181 35 71 130 166 185 185 68 23 214 15 278-14 14-6 36-17 49-23s43-28 67-49l42-37 33 29 32 29-22 30c-28 40-103 105-155 136-72 42-194 67-291 59z"
         id="path90" />
      <path
         d="m13343 5209c-86-16-150-69-192-159l-26-55-3-487-3-488h-24c-23 0-25-4-25-44 0-39 3-45 23-48 21-3 22-8 25-95 3-89 6-99 35-92 1 0 42-14 92-31 49-18 100-34 112-36s34-9 48-14c41-16 40-13-13 38-41 39-52 56-61 100-6 29-11 71-11 92v40h230v95l-115-3-116-3 3 503c3 470 4 505 22 534 34 57 103 80 189 61 35-7 54-23 79-62 18-29 19-29 15-5-5 35-29 82-52 103-52 47-153 71-232 56z"
         id="path92" />
      <path
         d="m4100 4520c0-661-1-692-20-741-23-62-61-105-107-120-68-22-30-29 157-29h190v341c0 321 1 341 18 334 70-28 323-41 427-21 17 3 45 9 63 12s40 8 48 11c12 4 14-44 14-336v-341h220v1580h-220l-2-402c-2-260-7-403-13-403-5-1-19-4-30-7-67-22-329-31-405-16-19 4-48 10-65 13-16 3-36 8-42 10-10 3-13 93-13 405v400h-220z"
         id="path94" />
      <path
         d="m5323 5197c2-6 19-57 36-112s36-109 41-120c12-28 78-218 101-295 11-36 24-74 30-85 5-11 20-54 34-95 13-41 37-111 53-155 78-213 141-395 135-395-3 0-1-6 4-12 10-13 37-88 35-98 0-3 3-9 8-15 4-5 15-35 25-65 9-30 23-68 30-85 7-16 14-36 17-44 2-7 34 67 71 165 38 99 75 196 83 217 19 49 43 112 61 162 8 22 21 55 29 73s14 36 14 41 8 26 17 47c9 22 18 44 19 50s9 27 17 45c8 19 32 81 53 139 37 104 67 179 85 212 5 10 9 23 9 29s6 25 13 42c12 27 27 65 82 212 15 40 55 150 55 153 0 1-53 2-118 2h-117l-13-32c-21-52-38-95-83-218l-43-116-55 19c-70 24-126 18-211-21-119-55-209-67-248-34-27 22-79 177-75 220 4 49 51 111 106 144 26 15 50 27 53 27s8 2 12 5c3 3-79 6-182 6-147 0-187-3-183-13zm684-458c24-11 43-26 43-33 0-15-219-578-228-588-4-4-54 129-111 295s-106 308-109 316c-4 10 2 9 26-3 58-30 109-29 202 3 103 36 121 37 177 10z"
         id="path96" />
      <path
         d="m8005 4507c0-386-3-714-7-728-11-39-70-98-125-125l-48-23 537-1c295 0 543 3 552 6s16 14 16 23 12 54 26 101c48 158 49 153-25 80-97-97-111-100-437-100h-264v570h500v87l-137 6c-75 4-187 7-250 7h-113v695l365-3 365-2v110h-955z"
         id="path98" />
      <path
         d="m11128 5191c-101-33-146-68-273-213-8-10-15-23-15-28 0-6-11-32-24-58s-30-67-37-92-16-50-20-55c-10-14-9-337 1-350 5-6 11-22 13-35 3-14 8-36 13-50 4-14 8-27 8-30s17-36 38-74 38-73 38-77c0-5 4-9 10-9 5 0 12-10 15-23 8-31 131-124 197-149 78-29 170-34 263-13 85 19 101 25 156 68 20 15 41 27 45 28 27 1 181 228 166 243-3 3 0 6 7 6s11 7 8 15c-4 8-2 17 4 20 5 4 9 12 8 18-2 7 1 47 5 90 5 43 6 80 3 83-4 4-539 95-647 110-67 9-143 24-149 29-26 26 49 276 103 343 39 49 93 96 124 109 35 15 124 20 167 9 82-20 154-57 189-95 20-22 46-28 46-11 0 6 28 52 61 102 55 81 58 89 30 69-17-12-45-26-62-31-48-14-146 9-224 52-11 6-63 13-115 15-74 2-108-1-152-16zm150-695c151-25 277-47 280-50 8-8-16-134-34-176-79-184-153-256-264-254-30 0-68 8-85 17-33 17-92 77-119 120-47 75-96 257-96 353 0 41 2 44 23 39 12-3 145-25 295-49z"
         id="path100" />
      <path
         d="m11938 4570-3-640h195v76l66-32c79-38 194-58 290-51 76 6 200 41 225 63 8 8 19 14 22 14 15 0 79 78 102 125 52 105 58 171 59 645l1 435-184 3c-102 1-181-1-177-5 4-5 11-8 14-9 4 0 23-7 42-16 45-19 86-67 100-116 12-46 13-578 0-719-21-239-98-326-277-319-87 4-119 12-169 41-46 27-57 38-87 92-22 37-22 46-25 546l-3 507h-189z"
         id="path102" />
      <path
         d="m14046 5199c-97-23-221-117-284-216-93-147-117-233-117-418 1-190 39-310 147-466 63-91 161-151 277-171 153-26 314 31 431 153 55 57 116 163 127 218 2 14 6 28 8 32 14 21 22 165 10 177-3 3-413 73-515 88-114 16-274 44-278 49-9 8 17 154 34 194 60 141 116 216 187 252 85 44 262 14 332-55 14-14 25-22 25-19s9-2 20-12c24-22 22-24 94 88 59 93 67 109 39 85-10-8-36-22-58-31-49-21-103-13-217 32-62 25-90 31-150 30-40-1-90-5-112-10zm104-699c140-22 265-43 278-46 18-4 22-11 22-44 0-59-45-189-88-256-91-141-209-177-323-101-50 33-112 132-142 228-25 77-51 245-41 260 2 4 12 5 22 3 9-2 132-22 272-44z"
         id="path104" />
      <path
         d="m14850 4570v-640h210v80l39-24c62-40 132-58 228-59l88-2 3 46 3 47-73 5c-40 2-85 8-101 11-42 10-111 51-123 75-6 11-18 29-26 38-34 40-37 81-37 499-1 355 2 420 15 445 21 42 46 64 101 93l48 25-187 1h-188z"
         id="path106" />
      <path
         d="m1365 3149c-75-11-114-24-195-64-139-70-262-185-276-260-16-86 19-137 104-155l52-12 54 49c30 27 79 60 110 74 31 13 56 26 56 29s-20 11-45 18c-36 10-49 19-62 47-14 29-15 40-4 77 16 53 59 93 141 132 58 27 77 31 180 34 138 5 201-9 339-74 51-24 98-44 102-44 45 0-89 80-193 114-40 14-117 29-170 35-108 12-108 12-193 0z"
         id="path108" />
      <path
         d="m2106 2835c34-46 94-165 94-186 0-23-31-4-90 56-35 35-67 62-72 59-16-10-8-31 17-42 36-16 114-90 142-134 59-95 56 0-5 125-21 45-58 102-81 127l-42 45z"
         id="path110" />
      <path
         d="m1105 2509c-27-6-59-11-70-12s-26-6-32-10c-7-5-17-6-21-3-13 8-162-40-248-79-105-48-234-136-328-225-125-118-142-134-126-125 8 4 5-3-6-16-30-33-125-181-120-186 2-2 55 23 117 56 121 63 296 125 326 114 10-3 28-15 41-26 20-19 36-21 185-22 154 0 165-2 220-28 32-14 71-40 87-56 18-21 41-33 70-37 29-5 44-13 47-25 8-29 2-33-67-35-67-2-203-40-274-76-51-26-217-187-257-249-50-78-106-251-119-366-6-55-9-218-8-364 3-288 1-307-54-387-16-23-27-46-24-50 2-4 40-33 84-65 155-111 346-191 530-221 138-23 360-14 502 19 63 14 119 30 125 34 5 4 32 16 59 26 59 22 174 85 237 131 25 19 49 31 53 29 3-3 4-2 1 1-2 4 25 31 62 61 36 30 89 83 118 117l52 64 22-75c15-49 21-87 17-108s-2-36 5-41c8-5 9-3 4 7-8 12-6 12 8 0 15-12 17-10 17 20 0 19-13 76-29 126-16 51-25 93-20 93s9-6 9-14 16-55 35-105c19-49 35-106 35-125 0-30 13-46 37-46 11 0-10 77-53 185-44 114-52 149-35 160 5 3 14-19 21-48 6-29 31-95 55-147 27-57 45-109 45-131 0-37 14-59 38-59 25 0 6 66-57 199-67 140-83 210-59 256l15 28 7-44c13-85 40-144 119-261 62-93 81-128 85-164l5-46 116 4c122 5 195 23 262 64 20 13 40 20 43 17 3-4 6 0 6 7s2 11 5 8 18 6 33 21c15 14 39 36 52 48 35 31 48 48 86 112 18 31 38 62 44 68 6 7 9 14 8 15-1 2 7 32 17 68 23 80 26 242 6 315-47 167-162 310-311 385-66 33-163 60-211 59-21 0-6-6 40-14 110-20 209-73 301-161 95-91 136-164 156-277 24-138-9-227-85-229-67-2-135 83-177 220-51 169-121 270-241 345-50 31-151 67-191 67h-29l-6 83c-13 160-75 356-161 504-44 76-45 77-53 48-4-17-8-84-7-150 0-115 15-201 45-261 17-33 7-59-20-59-28 0-33 13-57 145-18 96-22 361-7 400 9 22 2 33-96 130-58 58-128 120-155 139l-49 34 6-124c6-136 21-202 85-377 45-123 49-142 29-142-27 0-45 37-110 220-72 203-85 263-88 389l-2 85-61 29c-34 16-105 44-159 62s-101 35-104 38c-2 3-20 3-39 1s-34 0-34 4c0 11 7 10-175 16-86 3-171 1-200-5zm1084-959c144-285 160-516 51-737-43-88-82-126-136-136-44-8-65 11-74 67-10 65 4 138 44 239 77 189 112 344 101 447-6 62-26 161-40 205-12 35 12-3 54-85zm-141-205c-5-80-31-169-109-375-28-73-32-98-33-180-1-84 2-102 24-145 36-69 93-99 173-91 134 13 226 111 294 311 18 52 22 60 18 30-16-109-69-221-156-330-83-105-141-159-222-207-58-35-78-41-125-42-107-1-158 56-169 190-4 48 1 84 26 175 33 118 44 144 148 339 69 128 110 256 120 370 9 96 17 62 11-45z"
         id="path112" />
      <path
         d="m433 1880c-124-62-176-95-242-152-46-40-95-81-110-90-24-16-60-98-43-98 4 0 46 38 92 85 106 107 196 170 375 262 101 52 132 73 113 73-15 0-99-36-185-80z"
         id="path114" />
      <path
         d="m883 1899c-162-21-304-80-427-180-123-98-215-239-331-505-36-82-74-157-85-166-18-14-19-22-11-58 5-23 12-44 14-47 18-18 46 33 142 262 121 287 175 377 290 483 133 121 305 183 516 186 91 1 125 4 122 13-9 24-103 29-230 12z"
         id="path116" />
      <path
         d="m784 1771c-97-53-213-151-274-232-111-147-168-301-196-528-23-194-40-253-90-328-24-36-44-67-44-69 0-9 65-104 71-104 8 0 52 100 73 165 9 28 25 122 36 210 38 299 49 356 83 439 77 191 184 323 346 427 82 53 78 66-5 20z"
         id="path118" />
      <path
         d="m667 1747c-229-128-355-317-423-637-36-169-59-239-99-297-40-60-42-71-17-113 18-29 20-29 35-12 39 42 77 155 116 342 55 258 64 288 124 405 42 82 67 115 137 185 53 53 108 98 148 118 34 18 62 35 62 38 0 11-30 1-83-29z"
         id="path120" />
    </g>
    <g
       fill="#6d643a"
       id="g134">
      <path
         d="m13383 4023c32-2 81-2 110 0s3 3-58 3c-60 0-84-1-52-3z"
         id="path124" />
      <path
         d="m2980 2641c0-11 31-24 39-16 3 3-1 10-9 15-19 12-30 12-30 1z"
         id="path126" />
      <path
         d="m967 2505c-6-15 22-30 34-18 5 5 0 14-10 20-15 10-20 9-24-2z"
         id="path128" />
      <path
         d="m1480 2500c0-5 7-10 15-10s15 5 15 10c0 6-7 10-15 10s-15-4-15-10z"
         id="path130" />
      <path
         d="m2486 2252c5-4 25-21 44-37l35-30-34 38c-19 20-39 37-45 37s-6-3 0-8z"
         id="path132" />
    </g>
    <g
       fill="#825e40"
       id="g178">
      <path
         d="m7514 5860c0-58 1-81 3-52 2 28 2 76 0 105-2 28-3 5-3-53z"
         id="path136" />
      <path
         d="m15064 5835c0-71 1-99 3-62s2 96 0 130-3 4-3-68z"
         id="path138" />
      <path
         d="m4373 5850c0-47 2-66 4-42 2 23 2 61 0 85-2 23-4 4-4-43z"
         id="path140" />
      <path
         d="m14504 5830c0-52 1-74 3-47 2 26 2 68 0 95-2 26-3 4-3-48z"
         id="path142" />
      <path
         d="m15374 5780c0-52 1-74 3-47 2 26 2 68 0 95-2 26-3 4-3-48z"
         id="path144" />
      <path
         d="m12430 5750c0-5-33-11-72-13l-73-3 78-2c63-2 77 1 77 13 0 8-2 15-5 15s-5-4-5-10z"
         id="path146" />
      <path
         d="m4373 5645c0-33 2-45 4-27s2 45 0 60-4 0-4-33z"
         id="path148" />
      <path
         d="m5879 5637c5-5 21-7 37-5 27 3 26 4-8 9-22 3-34 1-29-4z"
         id="path150" />
      <path
         d="m10295 5640c-4-6 11-10 37-9 33 0 38 2 23 9-28 12-53 12-60 0z"
         id="path152" />
      <path
         d="m3813 5633c9-2 25-2 35 0 9 3 1 5-18 5s-27-2-17-5z"
         id="path154" />
      <path
         d="m6683 5633c9-2 25-2 35 0 9 3 1 5-18 5s-27-2-17-5z"
         id="path156" />
      <path
         d="m10783 5633c9-2 25-2 35 0 9 3 1 5-18 5s-27-2-17-5z"
         id="path158" />
      <path
         d="m11208 5633c12-2 30-2 40 0 9 3-1 5-23 4-22 0-30-2-17-4z"
         id="path160" />
      <path
         d="m13233 5633c15-2 37-2 50 0 12 2 0 4-28 4-27 0-38-2-22-4z"
         id="path162" />
      <path
         d="m2433 5440c0-25 2-35 4-22 2 12 2 32 0 45-2 12-4 2-4-23z"
         id="path164" />
      <path
         d="m2433 5255c0-33 2-45 4-27s2 45 0 60-4 0-4-33z"
         id="path166" />
      <path
         d="m2493 5095c0-22 2-30 4-17 2 12 2 30 0 40-3 9-5-1-4-23z"
         id="path168" />
      <path
         d="m2353 4765c0-22 2-30 4-17 2 12 2 30 0 40-3 9-5-1-4-23z"
         id="path170" />
      <path
         d="m2242 4540c0-19 2-27 5-17 2 9 2 25 0 35-3 9-5 1-5-18z"
         id="path172" />
      <path
         d="m2453 4235c0-33 2-45 4-27s2 45 0 60-4 0-4-33z"
         id="path174" />
      <path
         d="m2193 3905c0-33 2-45 4-27s2 45 0 60-4 0-4-33z"
         id="path176" />
    </g>
    <g
       fill="#8b765a"
       id="g194">
      <path
         d="m12634 5840c0-69 1-97 3-62 2 34 2 90 0 125-2 34-3 6-3-63z"
         id="path180" />
      <path
         d="m7454 5835c0-49 1-71 3-48s2 64 0 90-3 8-3-42z"
         id="path182" />
      <path
         d="m3119 5803-34-38 38 34c20 19 37 36 37 38 0 8-8 0-41-34z"
         id="path184" />
      <path
         d="m8823 5670c0-47 2-66 4-42 2 23 2 61 0 85-2 23-4 4-4-43z"
         id="path186" />
      <path
         d="m2432 5170c0-19 2-27 5-17 2 9 2 25 0 35-3 9-5 1-5-18z"
         id="path188" />
      <path
         d="m2452 4410c0-19 2-27 5-17 2 9 2 25 0 35-3 9-5 1-5-18z"
         id="path190" />
      <path
         d="m3020 2621c0-10 30-24 37-17 3 2-5 9-16 16-12 6-21 7-21 1z"
         id="path192" />
    </g>
    <g
       fill="#88a56e"
       id="g386">
      <path
         d="m4892 5763c-1-111 1-204 6-206 4-3 6 56 4 131-4 252-8 278-10 75z"
         id="path196" />
      <path
         d="m8823 5885c0-44 2-61 4-37 2 23 2 59 0 80-2 20-4 1-4-43z"
         id="path198" />
      <path
         d="m10764 5800c0-91 2-128 3-82 2 45 2 119 0 165-1 45-3 8-3-83z"
         id="path200" />
      <path
         d="m12574 5800c0-91 2-128 3-82 2 45 2 119 0 165-1 45-3 8-3-83z"
         id="path202" />
      <path
         d="m15004 5800c0-91 2-128 3-82 2 45 2 119 0 165-1 45-3 8-3-83z"
         id="path204" />
      <path
         d="m3654 5770c0-102 2-143 3-92 2 50 2 134 0 185-1 50-3 9-3-93z"
         id="path206" />
      <path
         d="m12793 5840c0-47 2-66 4-42 2 23 2 61 0 85-2 23-4 4-4-43z"
         id="path208" />
      <path
         d="m2333 5495c0-27 2-38 4-22 2 15 2 37 0 50-2 12-4 0-4-28z"
         id="path210" />
      <path
         d="m8108 5519c-21-11-38-22-38-24 0-5 79 32 89 41 12 11-18 1-51-17z"
         id="path212" />
      <path
         d="m7605 5278-40-43 43 40c39 36 47 45 39 45-2 0-21-19-42-42z"
         id="path214" />
      <path
         d="m4880 4808c-3-224-2-404 3-399 4 4 6 187 5 407l-3 399z"
         id="path216" />
      <path
         d="m5115 4425c0-434 1-611 2-392 2 219 2 575 0 790-1 216-2 37-2-398z"
         id="path218" />
      <path
         d="m11935 4575c0-352 1-495 2-317 2 178 2 466 0 640-1 174-2 29-2-323z"
         id="path220" />
      <path
         d="m12135 4715c0-275 1-386 2-247 2 139 2 364 0 500-1 136-2 22-2-253z"
         id="path222" />
      <path
         d="m15200 5194-25-15 25 7c14 3 29 10 35 15 15 14-7 10-35-7z"
         id="path224" />
      <path
         d="m4095 4510c0-382 1-539 2-347 2 191 2 503 0 695-1 191-2 34-2-348z"
         id="path226" />
      <path
         d="m8005 4510c0-382 1-539 2-347 2 191 2 503 0 695-1 191-2 34-2-348z"
         id="path228" />
      <path
         d="m14845 4565c0-352 1-495 2-317 2 178 2 466 0 640-1 174-2 29-2-323z"
         id="path230" />
      <path
         d="m6914 4855c0-181 2-257 3-168 2 89 2 237 0 330-1 92-3 20-3-162z"
         id="path232" />
      <path
         d="m11684 5173c4-7-11-39-34-73-22-33-38-60-36-60 3 0 24 27 47 61 32 48 38 63 29 72-10 9-11 9-6 0z"
         id="path234" />
      <path
         d="m5331 5150c0-8 6-28 14-45 17-39 18-21 0 25-7 19-14 28-14 20z"
         id="path236" />
      <path
         d="m10700 5085c19-19 36-35 39-35s-10 16-29 35-36 35-39 35 10-16 29-35z"
         id="path238" />
      <path
         d="m13835 5078-40-43 43 40c23 21 42 40 42 42 0 8-9 0-45-39z"
         id="path240" />
      <path
         d="m10924 5068-29-33 33 29c30 28 37 36 29 36-2 0-16-15-33-32z"
         id="path242" />
      <path
         d="m11152 5079c-18-12-31-23-29-26 3-2 22 7 42 22 45 30 34 34-13 4z"
         id="path244" />
      <path
         d="m14318 5080c24-11 58-30 75-42s27-17 23-10c-9 16-85 58-116 66-14 3-5-3 18-14z"
         id="path246" />
      <path
         d="m14027 5058c-31-31-31-32-2-8 16 14 34 28 40 32 5 5 6 8 2 8s-22-15-40-32z"
         id="path248" />
      <path
         d="m7662 5045c-12-19-20-35-17-35 7 0 47 61 42 66-2 3-14-11-25-31z"
         id="path250" />
      <path
         d="m11475 5055c11-9 29-21 40-26l20-10-20 16c-11 9-29 21-40 26l-20 10z"
         id="path252" />
      <path
         d="m3410 5045c14-8 30-14 35-14 6 0-1 6-15 14s-29 14-35 14c-5 0 1-6 15-14z"
         id="path254" />
      <path
         d="m12694 4725c0-176 2-247 3-157 2 90 2 234 0 320-1 86-3 13-3-163z"
         id="path256" />
      <path
         d="m13325 4510c0-272 1-384 2-247 2 136 2 358 0 495-1 136-2 24-2-248z"
         id="path258" />
      <path
         d="m7342 4933c-26-38-34-53-29-53 2 0 16 18 31 40 29 45 28 56-2 13z"
         id="path260" />
      <path
         d="m10810 4899c-12-23-20-43-18-45 3-2 14 17 26 41 27 56 20 60-8 4z"
         id="path262" />
      <path
         d="m9775 4869c-9-17-15-33-13-35 3-2 12 12 21 31 21 43 13 47-8 4z"
         id="path264" />
      <path
         d="m6011 4876c2-2 18-6 34-10 22-5 26-4 15 4-14 9-59 15-49 6z"
         id="path266" />
      <path
         d="m3720 4692c0-6-16-32-36-57-19-26-33-49-31-51 2-3 21 20 42 51 21 30 35 58 32 62-4 3-7 1-7-5z"
         id="path268" />
      <path
         d="m10743 4575c0-27 2-38 4-22 2 15 2 37 0 50-2 12-4 0-4-28z"
         id="path270" />
      <path
         d="m14632 4514c10-3 19-19 21-37 4-31 5-31 3 3-1 27-5 35-21 37-14 1-15 0-3-3z"
         id="path272" />
      <path
         d="m2243 4475c0-22 2-30 4-17 2 12 2 30 0 40-3 9-5-1-4-23z"
         id="path274" />
      <path
         d="m6958 4503c23-2 61-2 85 0 23 2 4 4-43 4s-66-2-42-4z"
         id="path276" />
      <path
         d="m7431 4465c20-7 50-20 67-29 18-9 32-14 32-11 0 9-103 55-120 54-8 0 1-6 21-14z"
         id="path278" />
      <path
         d="m3484 4408-29-33 33 29c30 28 37 36 29 36-2 0-16-15-33-32z"
         id="path280" />
      <path
         d="m4820 4400c-21-7-21-8-5-9 11 0 27 4 35 9 18 11 5 11-30 0z"
         id="path282" />
      <path
         d="m6912 4073 3-338 2 332 3 332 53 4 52 3-57 2-58 2z"
         id="path284" />
      <path
         d="m8638 4403 92-4v-89l-252-3-253-3 255 1h255l3 53 3 52-98-2-98-2z"
         id="path286" />
      <path
         d="m3154 4368-29-33 33 29c30 28 37 36 29 36-2 0-16-15-33-32z"
         id="path288" />
      <path
         d="m4878 4088c4-416 8-454 10-115 1 185-1 337-5 337-5 0-7-100-5-222z"
         id="path290" />
      <path
         d="m10815 4220c14-27 28-50 30-50 3 0-6 23-20 50-14 28-28 50-30 50-3 0 6-22 20-50z"
         id="path292" />
      <path
         d="m11689 4199c-15-27-23-46-18-43 11 6 52 84 47 89-2 2-15-19-29-46z"
         id="path294" />
      <path
         d="m3275 4178-40-43 43 40c39 36 47 45 39 45-2 0-21-19-42-42z"
         id="path296" />
      <path
         d="m2453 4145c0-22 2-30 4-17 2 12 2 30 0 40-3 9-5-1-4-23z"
         id="path298" />
      <path
         d="m2939 4133-34-38 38 34c20 19 37 36 37 38 0 8-8 0-41-34z"
         id="path300" />
      <path
         d="m11611 4087c-42-49-43-50-7-17 32 29 64 71 54 70-2-1-23-24-47-53z"
         id="path302" />
      <path
         d="m13980 4107c0-2 15-16 33-33l32-29-29 33c-28 30-36 37-36 29z"
         id="path304" />
      <path
         d="m2193 4005c0-27 2-38 4-22 2 15 2 37 0 50-2 12-4 0-4-28z"
         id="path306" />
      <path
         d="m12398 4023c12-2 32-2 45 0 12 2 2 4-23 4s-35-2-22-4z"
         id="path308" />
      <path
         d="m15318 4023c17-2 47-2 65 0 17 2 3 4-33 4s-50-2-32-4z"
         id="path310" />
      <path
         d="m12133 3970c0-25 2-35 4-22 2 12 2 32 0 45-2 12-4 2-4-23z"
         id="path312" />
      <path
         d="m15063 3970c0-25 2-35 4-22 2 12 2 32 0 45-2 12-4 2-4-23z"
         id="path314" />
      <path
         d="m8984 3913c-28-44-30-50-13-31 9 9 19 15 23 13 3-3 4-2 1 2-3 3 0 12 7 20 6 7 8 16 5 19s-13-7-23-23z"
         id="path316" />
      <path
         d="m13323 3880c0-30 2-43 4-27 2 15 2 39 0 55-2 15-4 2-4-28z"
         id="path318" />
      <path
         d="m2812 3880c0-19 2-27 5-17 2 9 2 25 0 35-3 9-5 1-5-18z"
         id="path320" />
      <path
         d="m2193 3805c0-27 2-38 4-22 2 15 2 37 0 50-2 12-4 0-4-28z"
         id="path322" />
      <path
         d="m9940 3775c30-30 57-55 59-55 3 0-19 25-49 55s-57 55-59 55c-3 0 19-25 49-55z"
         id="path324" />
      <path
         d="m5811 3761c12-34 23-60 25-58 5 5-26 100-37 112-5 5 0-19 12-54z"
         id="path326" />
      <path
         d="m7002 3733c37-2 100-2 140 0 40 1 10 3-67 3s-110-1-73-3z"
         id="path328" />
      <path
         d="m2860 3727c0-2 15-16 33-33l32-29-29 33c-28 30-36 37-36 29z"
         id="path330" />
      <path
         d="m3704 3697c16-20 30-37 33-37 7 0-36 58-49 66-7 4 1-9 16-29z"
         id="path332" />
      <path
         d="m4024 3698-29-33 33 29c17 17 32 31 32 33 0 8-8 1-36-29z"
         id="path334" />
      <path
         d="m10605 3680c-13-5-14-9-5-9 8 0 24 4 35 9 13 5 14 9 5 9-8 0-24-4-35-9z"
         id="path336" />
      <path
         d="m5851 3650c15-45 24-54 15-15-4 17-12 34-17 40-5 5-4-6 2-25z"
         id="path338" />
      <path
         d="m10860 3651c14-11 28-21 33-21h12c10 0 0 15-10 15-5 0-21 6-35 13l-25 13z"
         id="path340" />
      <path
         d="m13410 3650c16-10 67-14 58-4-3 3-21 7-39 9-25 3-30 2-19-5z"
         id="path342" />
      <path
         d="m2765 3239c-92-22-277-133-267-162 1-4 5-24 8-45 3-20 20-69 39-107 39-84 67-101 188-116 79-10 166-34 237-66 64-28 255-125 263-133 5-4-22-13-60-20-68-12-69-12-148 23-44 20-127 59-185 87-57 29-119 54-137 57-29 5-33 3-33-16 0-65 88-190 173-245 15-10 27-22 27-26s-16-19-34-34c-28-21-37-24-46-14-5 7-36 48-68 90-31 42-66 89-77 103-72 96-159 258-185 344-9 30-22 57-28 59-7 2-11 0-10-5 1-4-11-30-27-58-50-83-53-100-33-195 24-120 45-196 64-233 16-31 121-170 161-212 45-49 194-225 235-280 60-79 106-170 162-319 32-85 32-90 0-111-33-21-50-8-64 49-32 127-69 212-130 293-47 61-74 73-102 46-26-27-37-81-38-183 0-106 39-443 53-452 6-3 0-8-14-11-13-2 1-2 32 0 33 3 81-2 119-12 240-62 418-268 446-518 6-50 10-58 31-63 23-6 159 0 234 11 122 17 312 103 414 189 26 21 28 27 17 43-49 70-52 87-52 333 0 253-8 317-54 429-56 137-173 252-303 295-45 15-101 26-131 26-45 0-53 3-50 17 2 9 17 20 33 25 17 5 37 12 45 15 29 10 175 2 245-14 175-39 294-135 381-308 28-55 72-152 99-216 26-64 56-127 65-139l17-23 13 37c10 32 10 40-4 55-9 10-40 71-69 137-78 175-131 261-203 330-113 108-262 166-430 168l-91 1 31 19c39 24 153 38 236 30 51-5 87-18 167-60 138-71 199-113 290-198 70-65 76-69 69-41-4 17-17 39-30 50-119 104-163 134-269 186-66 33-129 59-141 59h-20l21 22c21 20 25 21 77 9 31-7 106-37 167-67 60-30 112-54 114-54 8 0-34 70-74 124-85 115-298 281-388 302-16 4-39 12-53 19s-52 19-85 26c-75 16-74 16-110 18l-30 1-2 83c-2 96-36 218-82 286-51 76-146 165-218 203-114 60-281 84-398 57zm340-94c78-21 131-48 178-93 70-67 95-143 61-190-34-48-89-20-184 93-99 119-196 163-317 145-77-12-71 7 13 40 61 24 168 26 249 5z"
         id="path344" />
      <path
         d="m1480 3171-55-6 75-8c177-19 266-45 375-110l60-36 27 32c15 18 26 37 24 42-3 13-114 53-196 71-78 17-234 24-310 15z"
         id="path346" />
      <path
         d="m1373 3153c9-2 25-2 35 0 9 3 1 5-18 5s-27-2-17-5z"
         id="path348" />
      <path
         d="m1101 3060c-30-17-62-36-70-44-9-7-29-21-46-29-25-13-136-118-198-188-27-30-95-144-133-223-36-74-58-139-72-217l-9-46 44 30c58 38 200 101 278 122l61 17 44 81c25 45 46 85 48 89 2 3-21 11-51 18-33 7-63 20-76 34-28 30-37 92-21 142 17 49 127 158 210 207 77 44 69 50-9 7z"
         id="path350" />
      <path
         d="m2091 2992c-22-92-22-129 2-149l22-18-20 25-20 25 28-25c15-13 25-30 23-37-3-7 0-12 7-10 17 3 97-160 104-211 7-53-8-55-41-4-34 52-133 142-157 142-20 0-66-206-76-335l-6-80 77-59c42-32 110-95 151-139s77-78 78-76c7 8 27 95 37 159 15 97 12 148-15 340-14 96-28 224-32 283-6 106-7 108-38 135-108 92-111 92-124 34z"
         id="path352" />
      <path
         d="m1800 2812c-104-6-198-95-235-220-27-92-23-100 76-131 47-15 118-43 157-61 40-18 75-31 77-28 3 3 6 92 8 199 2 181 1 196-18 219-17 21-27 25-65 22z"
         id="path354" />
      <path
         d="m2105 2710c27-27 51-50 54-50s-17 23-44 50c-27 28-51 50-54 50s17-22 44-50z"
         id="path356" />
      <path
         d="m1267 2701c-93-34-137-69-174-140-26-49-22-50 110-44 67 2 155 1 194-4 40-5 76-7 80-4 5 3 9 45 11 92 3 84 2 88-24 108-37 29-101 26-197-8z"
         id="path358" />
      <path
         d="m2431 2247c-41-21-63-62-92-173l-28-108 48-85c87-154 145-337 158-498l6-83h29c40 0 141-36 191-67 120-75 190-176 241-345 55-180 158-267 232-197 56 53 48 227-16 348-45 83-165 197-258 244-70 34-178 65-189 53-4-3 1-6 11-6 63 0 239-94 311-167 82-83 130-191 110-252-9-31-50-54-80-47-40 10-94 65-126 128-98 195-211 289-383 319-76 13-73 29 7 29 26 0 47 5 47 11s-8 8-19 4c-18-5-20 3-27 112-11 162-11 420 0 529 11 117 1 148-70 214-60 54-66 56-103 37z"
         id="path360" />
      <path
         d="m385 2168-50-53 53 50c28 27 52 51 52 52 0 8-9-1-55-49z"
         id="path362" />
      <path
         d="m3680 2083c0-5 23-21 50-38 113-66 218-202 264-340 10-27 28-131 41-232 23-172 42-251 77-316l14-29 27 36c15 19 27 38 27 42s-14 29-31 56c-36 55-43 85-64 241-29 225-113 391-248 493-84 64-89 70-37 44 25-13 77-55 115-94 100-102 134-175 184-402 38-174 67-260 96-284 11-9 18-3 34 29 10 23 16 39 11 36-17-10-68 92-85 170-52 240-93 337-185 437-63 69-174 142-204 134-10-3-32 2-47 10-32 16-39 17-39 7z"
         id="path364" />
      <path
         d="m485 2e3c-49-15-147-57-216-92-107-53-129-68-144-98-19-38-51-118-65-163l-9-28 28 18c16 10 66 51 112 91 66 57 118 89 242 152 86 44 170 80 185 80 19 0-12-21-113-73-179-92-261-149-381-267l-97-95-13-85c-7-51-11-145-9-234 5-222 20-221 120 8 153 350 275 501 487 605 103 50 172 69 313 83 114 12 180 6 188-15 3-9-27-12-122-13-324-4-559-150-704-439-19-39-65-143-102-230-83-196-110-251-131-263-15-8-15-15 6-78 12-38 26-73 31-79 5-5 9-18 9-29 0-17 3-15 18 10 9 17 29 50 44 75 25 41 43 103 96 329 41 175 120 333 219 434 75 77 237 183 266 173 6-2-18-19-53-38-42-22-96-65-150-119-70-70-95-103-137-185-60-117-69-147-124-405-39-185-77-300-115-341-11-12-12-22-4-43 13-34 23-28 70 46 44 68 62 134 84 319 39 314 148 525 349 677 90 69 164 112 189 112 7 0-21-22-63-49-162-104-269-236-346-427-34-83-45-140-83-439-20-162-44-252-86-337l-24-47 27-33c46-57 167-178 198-199 26-18 26-17-4 9l-34 29 30 44c56 82 58 99 55 388-1 146 2 309 8 364 13 115 69 288 119 366 40 62 206 223 257 249 72 37 207 74 277 76 37 1 68 4 69 7 1 2-1 13-4 25-4 16-16 23-48 28-29 4-52 16-70 37-16 16-55 42-87 56-55 26-66 28-220 28-150 1-165 3-185 22-37 33-58 34-153 3z"
         id="path366" />
      <path
         d="m2135 1635c14-44 34-143 40-205 11-103-24-258-101-447-40-101-54-174-44-239 9-56 30-75 74-67 54 10 93 48 136 136 90 183 93 391 8 607-37 94-135 280-113 215z"
         id="path368" />
      <path
         d="m2037 1390c-10-114-51-242-120-370-104-195-115-221-148-339-25-91-30-127-26-175 11-134 62-191 169-190 47 1 67 7 125 42 182 108 350 347 378 537 4 30 0 22-18-30-33-99-72-170-120-222-52-57-101-82-174-89-80-8-137 22-173 91-22 43-25 61-24 145 1 82 5 107 33 180 78 206 104 295 109 375 6 107-2 141-11 45z"
         id="path370" />
      <path
         d="m2361 642c-21-51-6-115 62-256 40-85 61-143 62-167 0-35 2-38 35-44 19-3 44-9 54-12 17-5 18-1 14 41-5 37-21 69-77 151-83 121-106 169-124 256l-13 63z"
         id="path372" />
      <path
         d="m2317 573c-14-13-6-48 39-161 25-64 47-134 47-154 2-27 8-40 23-46 20-10 20-8 13 42-4 28-25 89-47 134-23 46-46 108-52 138-12 57-13 58-23 47z"
         id="path374" />
      <path
         d="m2311 428c31-101 38-167 16-152-7 5-1-1 13-13l25-23 3 34c2 21-10 69-32 126-20 51-36 98-36 106s-4 14-9 14 4-42 20-92z"
         id="path376" />
      <path
         d="m3217 475c-9-19-15-35-12-35 7 0 37 61 33 66-3 2-12-12-21-31z"
         id="path378" />
      <path
         d="m2215 436c-27-34-42-55-34-49 13 11 23 5 63-38 25-27 51-47 56-44 15 10 11 54-13 126l-22 65z"
         id="path380" />
      <path
         d="m2100 319-45-41 42 32c37 27 61 51 51 50-2 0-23-19-48-41z"
         id="path382" />
      <path
         d="m2648 153c17-2 47-2 65 0 17 2 3 4-33 4s-50-2-32-4z"
         id="path384" />
    </g>
    <g
       fill="#bdad9a"
       id="g450">
      <path
         d="m5113 6e3c0-36 2-50 4-32 2 17 2 47 0 65-2 17-4 3-4-33z"
         id="path388" />
      <path
         d="m1913 5973c15-2 37-2 50 0 12 2 0 4-28 4-27 0-38-2-22-4z"
         id="path390" />
      <path
         d="m4388 5963c12-2 30-2 40 0 9 3-1 5-23 4-22 0-30-2-17-4z"
         id="path392" />
      <path
         d="m6671 5966c8-8 108-10 116-3 3 4-22 7-57 7s-61-2-59-4z"
         id="path394" />
      <path
         d="m7243 5963c9-2 25-2 35 0 9 3 1 5-18 5s-27-2-17-5z"
         id="path396" />
      <path
         d="m7428 5963c18-2 45-2 60 0s0 4-33 4-45-2-27-4z"
         id="path398" />
      <path
         d="m10788 5963c17-2 47-2 65 0 17 2 3 4-33 4s-50-2-32-4z"
         id="path400" />
      <path
         d="m12593 5963c9-2 25-2 35 0 9 3 1 5-18 5s-27-2-17-5z"
         id="path402" />
      <path
         d="m12778 5963c18-2 45-2 60 0s0 4-33 4-45-2-27-4z"
         id="path404" />
      <path
         d="m12988 5963c18-2 45-2 60 0s0 4-33 4-45-2-27-4z"
         id="path406" />
      <path
         d="m13980 5964 29-5 4-100 3-99v102l-1 103-32 3c-32 2-32 2-3-4z"
         id="path408" />
      <path
         d="m14294 5957c-2-7-3-58-1-113l3-99 2 107 2 107 33 4 32 4-33 1c-19 1-35-3-38-11z"
         id="path410" />
      <path
         d="m14454 5963c7-7 97-5 105 3 2 2-22 4-54 4s-55-3-51-7z"
         id="path412" />
      <path
         d="m15023 5963c9-2 25-2 35 0 9 3 1 5-18 5s-27-2-17-5z"
         id="path414" />
      <path
         d="m15198 5963c17-2 47-2 65 0 17 2 3 4-33 4s-50-2-32-4z"
         id="path416" />
      <path
         d="m4214 5860c0-58 1-81 3-52 2 28 2 76 0 105-2 28-3 5-3-53z"
         id="path418" />
      <path
         d="m14094 5800c0-91 2-128 3-82 2 45 2 119 0 165-1 45-3 8-3-83z"
         id="path420" />
      <path
         d="m12343 5933c32-2 81-2 110 0s3 3-58 3c-60 0-84-1-52-3z"
         id="path422" />
      <path
         d="m6734 5820c0-58 1-81 3-52 2 28 2 76 0 105-2 28-3 5-3-53z"
         id="path424" />
      <path
         d="m15432 5783-2-123 38 2c36 1 36 1 5 5l-32 4-4 117-3 117z"
         id="path426" />
      <path
         d="m5332 5800c0-19 2-27 5-17 2 9 2 25 0 35-3 9-5 1-5-18z"
         id="path428" />
      <path
         d="m12318 5763c18-2 45-2 60 0s0 4-33 4-45-2-27-4z"
         id="path430" />
      <path
         d="m4213 5675c0-33 2-45 4-27s2 45 0 60-4 0-4-33z"
         id="path432" />
      <path
         d="m2502 4850c0-19 2-27 5-17 2 9 2 25 0 35-3 9-5 1-5-18z"
         id="path434" />
      <path
         d="m2442 4640c0-19 2-27 5-17 2 9 2 25 0 35-3 9-5 1-5-18z"
         id="path436" />
      <path
         d="m2243 4395c0-27 2-38 4-22 2 15 2 37 0 50-2 12-4 0-4-28z"
         id="path438" />
      <path
         d="m2364 4115c0-121 2-169 3-107 2 62 2 161 0 220-1 59-3 8-3-113z"
         id="path440" />
      <path
         d="m2132 4140c0-19 2-27 5-17 2 9 2 25 0 35-3 9-5 1-5-18z"
         id="path442" />
      <path
         d="m2132 3910c0-19 2-27 5-17 2 9 2 25 0 35-3 9-5 1-5-18z"
         id="path444" />
      <path
         d="m2502 3650c0-19 2-27 5-17 2 9 2 25 0 35-3 9-5 1-5-18z"
         id="path446" />
      <path
         d="m2332 3220c0-19 2-27 5-17 2 9 2 25 0 35-3 9-5 1-5-18z"
         id="path448" />
    </g>
    <g
       fill="#c1d0ac"
       id="g494">
      <path
         d="m8858 5753c12-2 30-2 40 0 9 3-1 5-23 4-22 0-30-2-17-4z"
         id="path452" />
      <path
         d="m4325 4805c0-220 1-309 2-197 2 112 2 292 0 400-1 108-2 17-2-203z"
         id="path454" />
      <path
         d="m8235 4755c0-192 1-270 2-172 2 98 2 256 0 350-1 95-3 15-2-178z"
         id="path456" />
      <path
         d="m15065 4650c0-206 1-291 2-187 2 103 2 271 0 375-1 103-2 18-2-188z"
         id="path458" />
      <path
         d="m10962 4510c0-19 2-27 5-17 2 9 2 25 0 35-3 9-5 1-5-18z"
         id="path460" />
      <path
         d="m9963 4395c0-27 2-38 4-22 2 15 2 37 0 50-2 12-4 0-4-28z"
         id="path462" />
      <path
         d="m4324 3970c0-184 2-260 3-167 2 92 2 242 0 335-1 92-3 16-3-168z"
         id="path464" />
      <path
         d="m8234 4020c0-157 2-221 3-142 2 78 2 206 0 285-1 78-3 14-3-143z"
         id="path466" />
      <path
         d="m13553 3975c0-27 2-38 4-22 2 15 2 37 0 50-2 12-4 0-4-28z"
         id="path468" />
      <path
         d="m6683 3855c0-22 2-30 4-17 2 12 2 30 0 40-3 9-5-1-4-23z"
         id="path470" />
      <path
         d="m10368 3733c12-2 30-2 40 0 9 3-1 5-23 4-22 0-30-2-17-4z"
         id="path472" />
      <path
         d="m2856 3140c-84-33-90-52-13-40 121 18 218-26 317-145 95-113 150-141 184-93 45 65-25 188-139 247-102 52-259 66-349 31z"
         id="path474" />
      <path
         d="m1375 3106c-140-37-215-103-215-189 0-81 76-111 210-82 41 8 119 22 175 31 143 21 338 88 360 123 6 11-109 68-206 102-79 28-247 35-324 15z"
         id="path476" />
      <path
         d="m3305 3070c21-22 41-40 44-40s-13 18-34 40-41 40-44 40 13-18 34-40z"
         id="path478" />
      <path
         d="m2394 2970c-15-22-25-42-23-44s16 16 31 40c34 55 28 58-8 4z"
         id="path480" />
      <path
         d="m2053 2825-10-46 69-69c39-39 72-70 74-70 25 0-49 160-94 203l-29 27z"
         id="path482" />
      <path
         d="m3845 2230c-18-19-17-20 2-20 39 0 258-116 322-171 35-30 74-62 88-73l24-18-17 43c-45 123-40 117-154 174-100 50-194 85-230 85-9 0-25-9-35-20z"
         id="path484" />
      <path
         d="m3610 2211c-30-5-69-17-86-27l-31-19 91-1c168-2 317-60 430-168 72-69 125-155 203-330 29-65 58-125 65-133 20-25 27 10 27 147 1 179-3 191-92 276-89 84-151 126-290 199-93 48-111 54-183 58-43 3-104 2-134-2z"
         id="path486" />
      <path
         d="m3473 2140c-2-3-21-10-41-15-21-6-38-18-40-28-3-14 5-17 50-17 173 0 360-138 434-321 46-112 54-176 54-427 0-244 4-271 48-327l19-24 59 62c68 71 108 119 83 99-14-11-19-5-39 40-35 80-39 99-65 293-26 201-39 247-97 353-45 82-116 157-198 211-30 19-57 37-59 38-2 2-2 6 1 9 4 3 19-1 36-10 16-8 38-13 48-10 30 8 141-65 204-134 92-100 133-197 185-437 17-80 70-184 85-168 5 4 15 28 23 53 9 25 18 54 22 65 5 14 4 16-3 7-13-19-31 12-93 159-28 68-72 164-97 214-78 152-194 249-347 292-51 14-262 32-272 23z"
         id="path488" />
      <path
         d="m3765 2053c6-5 38-31 72-57 135-102 219-268 248-493 21-158 28-184 67-247 34-54 35-55 46-32 8 19 8 27-3 36-29 24-58 110-96 284-50 227-84 300-184 402-38 39-90 81-115 94-25 12-40 18-35 13z"
         id="path490" />
      <path
         d="m2598 1340c-31-3-59-8-63-11-3-4 25-12 62-19 171-29 284-123 382-318 50-99 126-151 175-118 96 62-12 270-197 378-123 71-235 99-359 88z"
         id="path492" />
    </g>
  </g>
</svg>
